- 
http://www.Speed.Cd 
       
http://www.Speed.Cd      fast  and The Hottest Private Tracker on the net

(((--Submit for invite!!--)))

Please Seed back to make the speed Faster!!!

------------------nfo--------------------------
-[img]http://img822.imageshack.us/img822/5324/bridesmaidsblurayart.jpg[/img]


[color=blue][size=5][b]Bridesmaids.2011.UNRATED.BDRip.XVID.AC3.HQ.Hive-CM8[/b][/size][/color]


[b]Thx Hive

CM8 Doing It Right The First Time :D


Source: Bluray

Video: 720x304 @bitrate 1650 2pass
Audio: English DTS to AC3 5.1 @448
Sample: yes included
Subs: yes english in srt/subs[/b]


[url]http://www.imdb.com/title/tt1478338/[/url]


General
Complete name                    : Bridesmaids.2011.UNRATED.BDRip.XVID.AC3.HQ.Hive-CM8.avi
Format                           : AVI
Format/Info                      : Audio Video Interleave
File size                        : 1.92 GiB
Duration                         : 2h 10mn
Overall bit rate                 : 2 107 Kbps
Writing application              : Nandub v1.0rc2
Writing library                  : Nandub build 1853/release

Video
ID                               : 0
Format                           : MPEG-4 Visual
Format profile                   : Advanced Simple@L5
Format settings, BVOP            : 1
Format settings, QPel            : Yes
Format settings, GMC             : No warppoints
Format settings, Matrix          : Default (H.263)
Muxing mode                      : Packed bitstream
Codec ID                         : XVID
Codec ID/Hint                    : XviD
Duration                         : 2h 10mn
Bit rate                         : 1 649 Kbps
Width                            : 720 pixels
Height                           : 304 pixels
Display aspect ratio             : 2.40:1
Frame rate                       : 23.976 fps
Color space                      : YUV
Chroma subsampling               : 4:2:0
Bit depth                        : 8 bits
Scan type                        : Progressive
Compression mode                 : Lossy
Bits/(Pixel*Frame)               : 0.314
Stream size                      : 1.50 GiB (78%)
Writing library                  : XviD 1.2.1 (UTC 2008-12-04)

Audio
ID                               : 1
Format                           : AC-3
Format/Info                      : Audio Coding 3
Mode extension                   : CM (complete main)
Codec ID                         : 2000
Duration                         : 2h 10mn
Bit rate mode                    : Constant
Bit rate                         : 448 Kbps
Channel(s)                       : 6 channels
Channel positions                : Front: L C R, Side: L R, LFE
Sampling rate                    : 48.0 KHz
Bit depth                        : 16 bits
Compression mode                 : Lossy
Stream size                      : 418 MiB (21%)
Alignment                        : Split accross interleaves
Interleave, duration             : 42 ms (1.00 video frame)
Interleave, preload duration     : 500 ms


Plot:
Picked as her best friend's maid of honor, lovelorn and broke Annie looks to bluff her
way through the expensive and bizarre rituals with an oddball group of bridesmaids.


Cast:
Kristen Wiig       ...   Annie
Maya Rudolph       ...   Lillian
Rose Byrne         ...   Helen
Jessica St. Clair  ...   Whitney
Melissa McCarthy   ...   Megan


[img]http://img825.imageshack.us/img825/1857/42107636.png[/img]
[img]http://img841.imageshack.us/img841/6470/brbbrr.png[/img]
[img]http://img21.imageshack.us/img21/8601/brbrp.png[/img]
[img]http://img194.imageshack.us/img194/3583/brbbrbbrbrrr.png[/img]
[img]http://img853.imageshack.us/img853/4440/brbbrbbrrr.png[/img]
[img]http://img651.imageshack.us/img651/3203/brbbrbrr.png[/img]



Greetz

ViSiON,SiC,SANTi,3LT0N,YanKeeS,MAGNET,THC,T0XiC,LKRG,FANTASIA-PLAY,FANTASIA-M,BHRG,FLAWL3SS,
D2U,WBZ,NOVA,Vik,Rapeseed,SAFC,goldadvance,MEMORY100,scumbag,KaN1vE,Unevano,Pinnz,Wayne
Mr Hive,cedrict wink,and all P2P groups
Great Work Guys :D

FYS

LOOKING FOR ANYTHING YOU WANT TO LOOK AND SOUND BETTER

CM8@hushmail.com